<svg xmlns="http://www.w3.org/2000/svg" viewBox="0 0 625.49756 232.35725"><title>logoText</title><path d="M40.21546,6.409,44.4583,5.20026a3.76368,3.76368,0,0,0,.64946.00838A22.97358,22.97358,0,0,1,60.58564,8.13242c.24007.13865.50148.24037.73291.3498C65.40487,3.51446,69.0066,1.27128,74.402.30055A20.04855,20.04855,0,0,1,89.74366,36.16824a1.58343,1.58343,0,0,0-.7128,2.0595q8.91385,31.09838,17.77827,62.21091c.56218,1.95858.35348,3.51929-1.28252,4.7961L40.82333,123.66828c-2.08366-.17637-3.112-1.39726-3.66583-3.35216Q28.2621,88.9147,19.2998,57.53223c-.19983-.70258-.37424-1.15876-1.30218-1.27538C9.63064,55.20529,3.81042,50.7107,1.143,42.73572-1.3949,35.1478.32548,28.18448,5.98521,22.54459c5.69666-5.67668,12.63-7.10544,20.32628-4.76242.41351.12589.81774.28225,1.26038.4363a21.79994,21.79994,0,0,1,6.79432-8.351C36.20548,8.55932,38.25844,7.55161,40.21546,6.409Zm55.5524,79.52252-.40171-1.41q-6.76754-23.755-13.53385-47.51032c-.72883-2.55976-.208-3.7828,2.0871-4.96612A13.45658,13.45658,0,1,0,65.59083,14.35632c-1.30322,2.75624-3.52961,3.2477-5.84531,1.29032a16.79644,16.79644,0,0,0-27.077,7.72519c-.93538,2.90984-3.02268,3.67307-5.6215,2.05609A12.92748,12.92748,0,0,0,16.15241,23.898a13.20919,13.20919,0,0,0,4.21893,25.85706c2.92379-.11558,3.73011.50824,4.54151,3.35606Q31.69614,76.919,38.47851,100.72705l.40207,1.4113ZM42.91547,116.09478,99.67575,99.92415l-2.13011-7.47688L40.78536,108.61789Z" style="fill:#ebebeb"/><path d="M95.76786,85.93154,38.88058,102.13835l-.40207-1.4113q-6.78275-23.808-13.56566-47.61592c-.8114-2.84782-1.61772-3.47164-4.54151-3.35606A13.20919,13.20919,0,0,1,16.15241,23.898,12.92748,12.92748,0,0,1,27.047,25.42792c2.59882,1.617,4.68612.85375,5.6215-2.05609a16.79644,16.79644,0,0,1,27.077-7.72519c2.3157,1.95738,4.54209,1.46592,5.84531-1.29032A13.46009,13.46009,0,1,1,83.9194,32.0451c-2.29506,1.18332-2.81593,2.40636-2.0871,4.96612q6.76387,23.756,13.53385,47.51032ZM41.49625,77.72471q1.72089,6.04047,3.44319,12.08054c.61436,2.14658,2.30776,3.239,4.19,2.7192,1.8842-.52029,2.78877-2.358,2.18422-4.48455Q47.84846,75.85108,44.37021,63.666c-.62182-2.17918-2.26537-3.233-4.18114-2.70019-1.95727.54433-2.80275,2.32193-2.16383,4.57176Q39.75612,71.63245,41.49625,77.72471ZM81.28108,66.30186q-1.69014-5.93255-3.38558-11.86358a7.22275,7.22275,0,0,0-.54393-1.43568,3.21819,3.21819,0,0,0-3.96469-1.489,3.114,3.114,0,0,0-2.10215,3.66256Q74.8976,68.119,78.64623,81.02376a3.08057,3.08057,0,0,0,3.39533,2.0596c2.15075-.23116,3.37226-2.18764,2.73234-4.49036C83.63351,74.48932,82.44737,70.39835,81.28108,66.30186ZM58.212,72.90121q1.72068,6.03972,3.44811,12.07748a5.32767,5.32767,0,0,0,.57645,1.41425,3.22552,3.22552,0,0,0,4.06656,1.18837A3.33862,3.33862,0,0,0,68.059,83.32872q-3.47348-12.24209-6.97268-24.47689c-.613-2.14395-2.32174-3.19071-4.2309-2.63417-1.90481.55527-2.73438,2.30658-2.11329,4.49768Q56.46979,66.81034,58.212,72.90121Z" style="fill:#f26419"/><path d="M42.91547,116.09478l-2.13011-7.47689L97.54564,92.44727l2.13011,7.47688Z" style="fill:#f26419"/><path d="M41.49625,77.72472q-1.736-6.09345-3.471-12.18717c-.63892-2.24983.20656-4.02743,2.16383-4.57176,1.91577-.53278,3.55932.521,4.18114,2.70019q3.47707,12.18543,6.94343,24.37392c.60455,2.12651-.3,3.96426-2.18422,4.48455-1.88222.51975-3.57562-.57262-4.19-2.7192Q43.21123,83.76687,41.49625,77.72472Z" style="fill:#ebebeb"/><path d="M81.28073,66.302c1.16664,4.09638,2.35278,8.18735,3.49317,12.291.63992,2.30272-.58159,4.2592-2.73234,4.49036a3.08057,3.08057,0,0,1-3.39533-2.0596Q74.90276,68.118,71.28473,55.17615a3.114,3.114,0,0,1,2.10215-3.66256,3.21819,3.21819,0,0,1,3.96469,1.489,7.22275,7.22275,0,0,1,.54393,1.43568Q79.59982,60.36676,81.28073,66.302Z" style="fill:#ebebeb"/><path d="M58.212,72.90119q-1.73566-6.09271-3.46993-12.18585c-.62109-2.1911.20848-3.94241,2.11329-4.49768,1.90916-.55654,3.6179.49022,4.2309,2.63417q3.49827,12.235,6.97268,24.47689a3.33862,3.33862,0,0,1-1.75589,4.25259,3.22552,3.22552,0,0,1-4.06656-1.18837,5.32767,5.32767,0,0,1-.57645-1.41425Q59.92145,78.94414,58.212,72.90119Z" style="fill:#ebebeb"/><path d="M89.13345,232.35725c-42.00079-.01273-75.72167-33.07923-75.68508-74.21633.03663-41.19438,33.96093-73.99887,76.4875-73.9627a74.62042,74.62042,0,0,1,75.08948,74.76692C164.97122,199.631,131.12637,232.37,89.13345,232.35725ZM103.71,168.61372q18.98362,0,37.96726-.00183c7.11558-.00367,7.80435-.69812,8.05578-8.02321a58.64245,58.64245,0,0,0-45.18042-58.95518c-23.64276-5.6284-44.52034.188-60.809,18.36333-15.56032,17.36268-19.35035,37.89383-10.571,59.54271,9.46576,23.34168,27.93737,35.87958,52.82874,37.165,25.52252,1.318,44.97462-9.90233,57.44923-32.47783,2.40424-4.351,1.81852-5.13251-3.06038-5.20113-2.99681-.04217-6.00451.149-8.99032-.03717a44.97108,44.97108,0,0,0-27.03694,6.394c-14.474,8.63916-34.26238,2.83318-43.0149-11.26434-.83229-1.34054-2.39788-2.71609-1.25729-4.48093.93654-1.44909,2.70308-.99987,4.15335-1.0028Q83.977,168.59445,103.71,168.61372Z" style="fill:#e9ecef"/><path d="M103.71,168.61623q-19.733.00378-39.46591.01812c-1.45027.00293-3.21681-.44629-4.15335,1.0028-1.14059,1.76484.425,3.14039,1.25729,4.48093,8.75252,14.09752,28.54087,19.9035,43.0149,11.26434a44.97108,44.97108,0,0,1,27.03694-6.394c2.98581.18616,5.99351-.005,8.99032.03717,4.8789.06862,5.46462.85015,3.06038,5.20113-12.47461,22.5755-31.92671,33.79588-57.44923,32.47783-24.89137-1.28545-43.363-13.82335-52.82874-37.165-8.77932-21.64888-4.98929-42.18,10.571-59.54271,16.28865-18.17537,37.16623-23.99173,60.809-18.36333A58.64245,58.64245,0,0,1,149.733,160.58868c-.25143,7.32509-.9402,8.01954-8.05578,8.02321Q122.69363,168.62166,103.71,168.61623ZM89.01509,147.926l.00011-.04381c3.32556,0,6.66823.21354,9.97264-.051a9.16859,9.16859,0,0,0,8.70931-8.19009c.5681-4.72424-1.59458-8.07368-5.95524-9.82365a32.2422,32.2422,0,0,0-24.78793-.04261c-4.62147,1.85407-6.73659,5.7763-5.93443,10.27958.8047,4.51759,4.09326,7.49589,9.018,7.83392C83.01692,148.09281,86.02173,147.926,89.01509,147.926Z" style="fill:#f26419"/><path d="M89.01509,147.926c-2.99336,0-5.99817.16684-8.97751-.03764-4.92477-.338-8.21333-3.31633-9.018-7.83392-.80216-4.50328,1.313-8.42551,5.93443-10.27958a32.2422,32.2422,0,0,1,24.78793.04261c4.36066,1.75,6.52334,5.09941,5.95524,9.82365a9.16859,9.16859,0,0,1-8.70931,8.19009c-3.30441.26452-6.64708.051-9.97264.051Z" style="fill:#fdfefe"/><path d="M422.74187,60.25992c-.15819-.8216-.25766-1.53143-.43405-2.22161-.87073-3.40682-3.329-5.20886-6.51511-6.03083A21.46331,21.46331,0,0,0,403.398,52.408a6.52681,6.52681,0,0,0-4.89183,6.96254,5.35361,5.35361,0,0,0,2.43615,4.19647c2.37119,1.81942,5.18,2.60393,8.01066,3.32741,5.63228,1.43955,11.31656,2.70578,16.88,4.37479a27.32964,27.32964,0,0,1,11.71938,6.76954,18.7712,18.7712,0,0,1,5.338,12.25041,24.62846,24.62846,0,0,1-.58768,8.56188c-1.90967,6.86162-6.53329,11.29357-12.79455,14.20671a40.62211,40.62211,0,0,1-14.1054,3.43329,52.57863,52.57863,0,0,1-15.73089-.79385c-6.46732-1.449-12.20343-4.26149-16.51693-9.48708A23.98906,23.98906,0,0,1,377.867,91.13928c.4541-.03009.87859-.08222,1.30311-.0827,4.99935-.0057,9.99879.01192,14.998-.01715.97023-.00563,1.43083.11122,1.536,1.32156a8.46543,8.46543,0,0,0,3.92283,6.29968,16.33827,16.33827,0,0,0,8.09549,2.648A27.95908,27.95908,0,0,0,419.439,100.2201c4.42488-1.50888,6.3248-4.88071,5.38072-9.344a6.406,6.406,0,0,0-3.7668-4.69326,72.2703,72.2703,0,0,0-8.52713-3.06663c-5.46391-1.61663-11.01537-2.94292-16.45755-4.62563a24.75883,24.75883,0,0,1-11.319-6.696,15.90962,15.90962,0,0,1-3.97712-12.99088,33.77815,33.77815,0,0,1,1.70254-8.0327c2.48017-6.74685,7.75806-10.53378,14.38934-12.66812,6.14067-1.97644,12.46931-2.2289,18.83924-1.91616a29.79657,29.79657,0,0,1,14.1214,4.062,20.864,20.864,0,0,1,10.22408,15.563c.17679,1.18036.217,2.38168.307,3.57432.0427.56591-.15054.885-.81.88308C433.9898,60.253,428.43387,60.25992,422.74187,60.25992Z" style="fill:#f26419"/><path d="M300.169,86.75576c-.13524.60189-.236,1.21477-.41115,1.8056-3.43447,11.58478-11.10428,19.3567-21.92791,24.24946a42.07147,42.07147,0,0,1-21.50324,3.5749c-18.35219-1.70594-32.66621-13.98962-36.73264-30.32147-3.42387-13.75118-.21539-26.06248,9.32119-36.55763a39.67462,39.67462,0,0,1,24.99561-12.992c14.09076-1.76711,26.63322,1.89417,36.93159,11.97428a33.63747,33.63747,0,0,1,9.14367,16.44228c.23917.98369-.03848,1.20334-.93929,1.197q-8.03791-.05694-16.07611-.05432c-.70722.00124-.966-.32738-1.19439-.89993-3.76178-9.4302-13.54117-14.86291-24.172-13.686a23.98184,23.98184,0,0,0-21.33469,21.329c-1.11327,8.93766,1.47644,16.649,8.283,22.64407a24.096,24.096,0,0,0,31.88524-.22442,20.203,20.203,0,0,0,5.316-7.73721c.15152-.3793.659-.8759,1.00551-.879,5.63882-.05105,11.2783-.03184,16.91761-.02278A2.30262,2.30262,0,0,1,300.169,86.75576Z" style="fill:#f26419"/><path d="M314.43631,114.67691V113.267q0-36.8384.00019-73.67678c0-1.57147.00129-1.57653,1.55789-1.57664q25.49889-.00186,50.99772-.02284c1.1642-.0022,1.588.24355,1.56,1.51686-.09066,4.11783-.03384,8.2389-.03384,12.35872V53.281h-36.252v1.39772c0,4.35981.0411,8.72026-.0273,13.079-.01841,1.173.344,1.482,1.48425,1.47713,9.27943-.04,18.5591-.02278,27.83869-.02161,1.76014.00022,1.76231.003,1.76295,1.7789q.00214,5.87973-.00057,11.75948c-.00121,1.60085-.00612,1.60764-1.57248,1.608q-13.7994.0035-27.5988.0052c-.58885.00035-1.17766.05669-1.823.08989V99.52348h36.57212v15.15343Z" style="fill:#f26419"/><path d="M473.90276,76.47242c.00006,12.27432-.01977,24.54872.0303,36.82283.00509,1.24807-.36352,1.52542-1.54732,1.51015-4.95688-.06394-9.91526-.05075-14.87257-.00693-.97815.00866-1.29488-.25263-1.29379-1.26667q.03933-37.12277.0013-74.24559c-.001-1.00322.31181-1.29894,1.29593-1.29113q7.496.05948,14.99265-.00337c1.08937-.0106,1.42078.30591,1.41738,1.41794C473.88873,51.76382,473.90273,64.11814,473.90276,76.47242Z" style="fill:#f26419"/><path d="M273.44228,148.13634q-3.81574,5.14251-7.63138,10.28506-5.71567,7.70568-11.4307,15.41184a3.18656,3.18656,0,0,1-4.76182-.05846q-9.09731-12.43721-18.19293-24.87564c-.20894-.28564-.4268-.56475-.858-1.13406v46.724h-12.3043V127.5217a54.80038,54.80038,0,0,0,6.66355-.05308c2.96263-.36521,4.72144.74866,6.45444,3.16768,6.35468,8.87016,12.97791,17.54794,19.50129,26.2972.35226.47244.716.93632,1.16451,1.52182,1.20959-1.60354,2.33744-3.08853,3.45465-4.58146q9.521-12.72311,19.02586-25.45826a1.93538,1.93538,0,0,1,1.76735-.915c3.19569.052,6.39272.02118,9.67727.02118v67.00632H273.75926V148.22573Z" style="fill:#161616"/><path d="M444.88945,172.692v21.815H432.62926V127.58536c.38288-.02246.733-.06084,1.08321-.061,9.31824-.00319,18.63674-.04715,27.95465.00924,11.01071.06662,19.93518,7.16306,21.96522,17.76651,2.93349,15.32231-7.23818,27.25509-22.12187,27.38467-5.03862.04389-10.078.00709-15.117.00716Zm.08159-10.61027h1.35874q6.71468,0,13.42935-.00016c6.39575-.00145,10.95088-3.87137,11.95667-10.15626a11.87813,11.87813,0,0,0-11.73946-13.793q-6.8346-.00251-13.66917-.00029H444.971Z" style="fill:#161616"/><path d="M576.80478,194.60312l-5.18036,0h-1.7993c-3.339,0-3.33513-.00036-3.66932-3.39227-.06172-.62655-.16939-1.24859-.28051-2.05076-6.84285,6.0565-14.71908,8.03793-23.4808,6.482a24.8713,24.8713,0,0,1-15.2795-8.74734,28.14674,28.14674,0,0,1,.40579-35.86922c8.4857-9.749,27.13342-12.62964,38.36807-1.82985.242-1.80491.47259-3.5237.70972-5.29177h10.20621Zm-28.4001-8.88132c8.75341.43663,16.17147-5.79612,16.98067-15.1573A16.23019,16.23019,0,0,0,550.52413,152.802a15.9418,15.9418,0,0,0-17.6049,15.17871C532.31542,177.4372,538.94132,185.3567,548.40468,185.7218Z" style="fill:#161616"/><path d="M326.58188,196.28256c-12.47457-.1569-22.88891-7.40993-26.56965-18.64183a26.79367,26.79367,0,0,1,22.031-34.99c8.83213-1.1665,16.96844.58059,23.68489,6.63086,8.21454,7.39975,10.81414,16.795,7.9177,27.34736-2.83652,10.334-10.11672,16.36355-20.424,18.78309A64.06456,64.06456,0,0,1,326.58188,196.28256Zm.11418-10.60118a15.834,15.834,0,0,0,16.02661-16.19075c.03216-9.55913-6.75271-16.736-15.8397-16.75486-9.22237-.01913-16.12185,6.94766-16.146,16.3035C310.71245,178.52845,317.54817,185.65672,326.69606,185.68138Z" style="fill:#161616"/><path d="M367.56518,143.882h9.70758c.2957,1.5878.591,3.17368.91938,4.93672.43563-.317.73986-.5396,1.04534-.76048,8.90527-6.4396,18.47272-7.623,28.52754-3.20937,5.48392,2.40719,8.42881,7.11335,9.7254,12.78889a40.65446,40.65446,0,0,1,1.03864,8.41845c.12779,9.078.04831,18.15887.0452,27.23863-.00013.39044-.03529.78086-.05726,1.23616H406.52652v-1.38763c0-8.59977.03842-17.19986-.02987-25.79909a26.03908,26.03908,0,0,0-.66026-5.694c-1.3087-5.58133-4.64366-8.37407-10.31117-8.8744a14.1779,14.1779,0,0,0-15.84041,13.43641c-.25488,3.74322-.13729,7.51309-.15188,11.271-.02,5.1598-.005,10.31973-.005,15.47959v1.53219H367.56518Z" style="fill:#161616"/><path d="M596.05529,154.20274H587.602v-9.27067c2.32181-.65137,4.68165-1.35542,7.06685-1.95926a1.63213,1.63213,0,0,0,1.367-1.38625c.93554-3.71669,1.98085-7.40569,2.92122-11.12121.19442-.76818.4916-1.021,1.27969-1.00575,2.54605.04926,5.09361.01839,7.77633.01839v14.32266H624.135v10.36077H608.13049c-.04837.4453-.117.78425-.1173,1.12326-.00627,6.79948-.0455,13.59939.02783,20.39808a15.19823,15.19823,0,0,0,.71771,4.34751,6.91573,6.91573,0,0,0,6.67448,5.10643c2.8705.16469,5.75358.112,8.63109.15294.46966.0067.93949.00094,1.43326.00094v9.602c-.18129.14125-.24387.23269-.306.23232-5.30892-.03056-10.64174.44849-15.90824-.57973-7.05448-1.3773-11.31143-5.62719-12.61552-12.67757a35.61181,35.61181,0,0,1-.58556-6.07092c-.07128-6.71874-.02693-13.43868-.02695-20.15817C596.05529,155.20834,596.05529,154.77815,596.05529,154.20274Z" style="fill:#161616"/><path d="M496.05644,125.18285h11.88639v69.31546H496.05644Z" style="fill:#161616"/></svg>