<svg xmlns="http://www.w3.org/2000/svg" viewBox="0 0 635.1704 232.35725"><title>logoTextDark</title><path d="M89.4151,149.58884c-3.16086,0-6.3338.18415-9.47985-.04155a10.40878,10.40878,0,0,1-3.25615-19.99335,32.68709,32.68709,0,0,1,26.175.047c4.60466,1.93158,6.88835,5.62863,6.28846,10.84317a9.87758,9.87758,0,0,1-9.19665,9.04007c-3.48931.292-7.019.05627-10.53067.05627Z" style="fill:#171614"/><path d="M63.53479,44.61893c1.16665,4.09639,2.35278,8.18736,3.49317,12.291.63992,2.30272-.58159,4.2592-2.73233,4.49036a3.08056,3.08056,0,0,1-3.39533-2.0596Q57.15681,46.435,53.53879,33.49312a3.114,3.114,0,0,1,2.10215-3.66256,3.21818,3.21818,0,0,1,3.96469,1.489,7.22275,7.22275,0,0,1,.54393,1.43568Q61.85388,38.68373,63.53479,44.61893Z" style="fill:#161616"/><path d="M71.3379,69.00682q-1.81047-6.35547-3.61866-12.71159c-.64624-2.28606.91395-4.31084,3.9799-5.19745,3.073-.88864,5.59313-.00693,6.23372,2.22914q3.65571,12.76077,7.273,25.5325c.56546,1.99736-.741,3.83818-3.38366,4.87813-2.38176.9373-5.00833.67435-6.19175-.68412a3.71777,3.71777,0,0,1-.69208-1.44937C73.72258,77.40947,72.53437,73.207,71.3379,69.00682Z" style="fill:#161616"/><path d="M40.21546,6.409,44.4583,5.20026a3.76368,3.76368,0,0,0,.64946.00838A22.97358,22.97358,0,0,1,60.58564,8.13242c.24007.13865.50148.24037.73291.3498C65.40487,3.51446,69.0066,1.27128,74.402.30055A20.04855,20.04855,0,0,1,89.74366,36.16824a1.58343,1.58343,0,0,0-.7128,2.0595q8.91385,31.09838,17.77827,62.21091c.56218,1.95858.35348,3.51929-1.28252,4.7961L40.82333,123.66828c-2.08366-.17637-3.112-1.39726-3.66583-3.35216Q28.2621,88.9147,19.2998,57.53223c-.19983-.70258-.37424-1.15876-1.30218-1.27538C9.63064,55.20529,3.81042,50.7107,1.143,42.73572-1.3949,35.1478.32548,28.18448,5.98521,22.54459c5.69666-5.67668,12.63-7.10544,20.32628-4.76242.41351.12589.81774.28225,1.26038.4363a21.79994,21.79994,0,0,1,6.79432-8.351C36.20548,8.55932,38.25844,7.55161,40.21546,6.409Zm55.5524,79.52252-.40171-1.41q-6.76754-23.755-13.53385-47.51032c-.72883-2.55976-.208-3.7828,2.0871-4.96612A13.45658,13.45658,0,1,0,65.59083,14.35632c-1.30322,2.75624-3.52961,3.2477-5.84531,1.29032a16.79644,16.79644,0,0,0-27.077,7.72519c-.93538,2.90984-3.02268,3.67307-5.6215,2.05609A12.92748,12.92748,0,0,0,16.15241,23.898a13.20919,13.20919,0,0,0,4.21893,25.85706c2.92379-.11558,3.73011.50824,4.54151,3.35606Q31.69614,76.919,38.47851,100.72705l.40207,1.4113ZM42.91547,116.09478,99.67575,99.92415l-2.13011-7.47688L40.78536,108.61789Z" style="fill:#161616"/><path d="M95.76786,85.93154,38.88058,102.13835l-.40207-1.4113q-6.78275-23.808-13.56566-47.61592c-.8114-2.84782-1.61772-3.47164-4.54151-3.35606A13.20919,13.20919,0,0,1,16.15241,23.898,12.92748,12.92748,0,0,1,27.047,25.42792c2.59882,1.617,4.68612.85375,5.6215-2.05609a16.79644,16.79644,0,0,1,27.077-7.72519c2.3157,1.95738,4.54209,1.46592,5.84531-1.29032A13.46009,13.46009,0,1,1,83.9194,32.0451c-2.29506,1.18332-2.81593,2.40636-2.0871,4.96612q6.76387,23.756,13.53385,47.51032ZM41.49625,77.72471q1.72089,6.04047,3.44319,12.08054c.61436,2.14658,2.30776,3.239,4.19,2.7192,1.8842-.52029,2.78877-2.358,2.18422-4.48455Q47.84846,75.85108,44.37021,63.666c-.62182-2.17918-2.26537-3.233-4.18114-2.70019-1.95727.54433-2.80275,2.32193-2.16383,4.57176Q39.75612,71.63245,41.49625,77.72471ZM81.28108,66.30186q-1.69014-5.93255-3.38558-11.86358a7.22275,7.22275,0,0,0-.54393-1.43568,3.21819,3.21819,0,0,0-3.96469-1.489,3.114,3.114,0,0,0-2.10215,3.66256Q74.8976,68.119,78.64623,81.02376a3.08057,3.08057,0,0,0,3.39533,2.0596c2.15075-.23116,3.37226-2.18764,2.73234-4.49036C83.63351,74.48932,82.44737,70.39835,81.28108,66.30186ZM58.212,72.90121q1.72068,6.03972,3.44811,12.07748a5.32767,5.32767,0,0,0,.57645,1.41425,3.22552,3.22552,0,0,0,4.06656,1.18837A3.33862,3.33862,0,0,0,68.059,83.32872q-3.47348-12.24209-6.97268-24.47689c-.613-2.14395-2.32174-3.19071-4.2309-2.63417-1.90481.55527-2.73438,2.30658-2.11329,4.49768Q56.46979,66.81034,58.212,72.90121Z" style="fill:#f26419"/><path d="M42.91547,116.09478l-2.13011-7.47689L97.54564,92.44727l2.13011,7.47688Z" style="fill:#f26419"/><path d="M41.49625,77.72472q-1.736-6.09345-3.471-12.18717c-.63892-2.24983.20656-4.02743,2.16383-4.57176,1.91577-.53278,3.55932.521,4.18114,2.70019q3.47707,12.18543,6.94343,24.37392c.60455,2.12651-.3,3.96426-2.18422,4.48455-1.88222.51975-3.57562-.57262-4.19-2.7192Q43.21123,83.76687,41.49625,77.72472Z" style="fill:#161616"/><path d="M58.212,72.90119q-1.73566-6.09271-3.46993-12.18585c-.62109-2.1911.20848-3.94241,2.11329-4.49768,1.90916-.55654,3.6179.49022,4.2309,2.63417q3.49827,12.235,6.97268,24.47689a3.33862,3.33862,0,0,1-1.75589,4.25259,3.22552,3.22552,0,0,1-4.06656-1.18837,5.32767,5.32767,0,0,1-.57645-1.41425Q59.92145,78.94414,58.212,72.90119Z" style="fill:#161616"/><path d="M89.13345,232.35725c-42.00079-.01273-75.72167-33.07923-75.68508-74.21633.03663-41.19438,33.96093-73.99887,76.4875-73.9627a74.62042,74.62042,0,0,1,75.08948,74.76692C164.97122,199.631,131.12637,232.37,89.13345,232.35725ZM103.71,168.61372q18.98362,0,37.96726-.00183c7.11558-.00367,7.80435-.69812,8.05578-8.02321a58.64245,58.64245,0,0,0-45.18042-58.95518c-23.64276-5.6284-44.52034.188-60.809,18.36333-15.56032,17.36268-19.35035,37.89383-10.571,59.54271,9.46576,23.34168,27.93737,35.87958,52.82874,37.165,25.52252,1.318,44.97462-9.90233,57.44923-32.47783,2.40424-4.351,1.81852-5.13251-3.06038-5.20113-2.99681-.04217-6.00451.149-8.99032-.03717a44.97108,44.97108,0,0,0-27.03694,6.394c-14.474,8.63916-34.26238,2.83318-43.0149-11.26434-.83229-1.34054-2.39788-2.71609-1.25729-4.48093.93654-1.44909,2.70308-.99987,4.15335-1.0028Q83.977,168.59445,103.71,168.61372Z" style="fill:#171614"/><path d="M103.71,168.61623q-19.733.00378-39.46591.01812c-1.45027.00293-3.21681-.44629-4.15335,1.0028-1.14059,1.76484.425,3.14039,1.25729,4.48093,8.75252,14.09752,28.54087,19.9035,43.0149,11.26434a44.97108,44.97108,0,0,1,27.03694-6.394c2.98581.18616,5.99351-.005,8.99032.03717,4.8789.06862,5.46462.85015,3.06038,5.20113-12.47461,22.5755-31.92671,33.79588-57.44923,32.47783-24.89137-1.28545-43.363-13.82335-52.82874-37.165-8.77932-21.64888-4.98929-42.18,10.571-59.54271,16.28865-18.17537,37.16623-23.99173,60.809-18.36333A58.64245,58.64245,0,0,1,149.733,160.58868c-.25143,7.32509-.9402,8.01954-8.05578,8.02321Q122.69363,168.62166,103.71,168.61623ZM89.01509,147.926l.00011-.04381c3.32556,0,6.66823.21354,9.97264-.051a9.16859,9.16859,0,0,0,8.70931-8.19009c.5681-4.72424-1.59458-8.07368-5.95524-9.82365a32.2422,32.2422,0,0,0-24.78793-.04261c-4.62147,1.85407-6.73659,5.7763-5.93443,10.27958.8047,4.51759,4.09326,7.49589,9.018,7.83392C83.01692,148.09281,86.02173,147.926,89.01509,147.926Z" style="fill:#f26419"/><text transform="translate(204.87841 111.52418)" style="font-size:101px;fill:#f26419;font-family:CodecColdTrial-ExtraBold, Codec Cold Trial;font-weight:800">CESI</text><text transform="translate(203.87841 188.52418)" style="font-size:101px;fill:#e9ecef;font-family:CodecColdTrial-Bold, Codec Cold Trial;font-weight:700">MonPlat</text></svg>